<svg xmlns="http://www.w3.org/2000/svg" xmlns:xlink="http://www.w3.org/1999/xlink" width="512" zoomAndPan="magnify" viewBox="0 0 384 112.499997" height="150" preserveAspectRatio="xMidYMid meet" version="1.0"><defs><g/><clipPath id="6598637588"><path d="M 0.847656 0 L 383.148438 0 L 383.148438 112.003906 L 0.847656 112.003906 Z M 0.847656 0 " clip-rule="nonzero"/></clipPath><clipPath id="4e993f3ee5"><path d="M 0.847656 9.328125 L 93.875 9.328125 L 93.875 102.355469 L 0.847656 102.355469 Z M 0.847656 9.328125 " clip-rule="nonzero"/></clipPath><clipPath id="7f54c90acf"><path d="M 25.488281 9.328125 L 69.234375 9.328125 C 82.84375 9.328125 93.875 20.359375 93.875 33.96875 L 93.875 77.714844 C 93.875 91.324219 82.84375 102.355469 69.234375 102.355469 L 25.488281 102.355469 C 11.882812 102.355469 0.847656 91.324219 0.847656 77.714844 L 0.847656 33.96875 C 0.847656 20.359375 11.882812 9.328125 25.488281 9.328125 Z M 25.488281 9.328125 " clip-rule="nonzero"/></clipPath><clipPath id="cc03852629"><path d="M 0.847656 0.328125 L 93.875 0.328125 L 93.875 93.355469 L 0.847656 93.355469 Z M 0.847656 0.328125 " clip-rule="nonzero"/></clipPath><clipPath id="786c6bb636"><path d="M 25.488281 0.328125 L 69.234375 0.328125 C 82.84375 0.328125 93.875 11.359375 93.875 24.96875 L 93.875 68.714844 C 93.875 82.324219 82.84375 93.355469 69.234375 93.355469 L 25.488281 93.355469 C 11.882812 93.355469 0.847656 82.324219 0.847656 68.714844 L 0.847656 24.96875 C 0.847656 11.359375 11.882812 0.328125 25.488281 0.328125 Z M 25.488281 0.328125 " clip-rule="nonzero"/></clipPath><linearGradient x1="0.00000320748" gradientTransform="matrix(0.363382, 0, 0, 0.363382, 0.849563, 0.32856)" y1="255.999997" x2="255.999999" gradientUnits="userSpaceOnUse" y2="0.0000014479" id="972b1658e8"><stop stop-opacity="1" stop-color="rgb(100%, 26.269531%, 32.548523%)" offset="0"/><stop stop-opacity="1" stop-color="rgb(100%, 26.487732%, 32.647705%)" offset="0.00390625"/><stop stop-opacity="1" stop-color="rgb(100%, 26.707458%, 32.748413%)" offset="0.0078125"/><stop stop-opacity="1" stop-color="rgb(100%, 26.925659%, 32.847595%)" offset="0.0117187"/><stop stop-opacity="1" stop-color="rgb(100%, 27.145386%, 32.946777%)" offset="0.015625"/><stop stop-opacity="1" stop-color="rgb(100%, 27.363586%, 33.045959%)" offset="0.0195312"/><stop stop-opacity="1" stop-color="rgb(100%, 27.583313%, 33.146667%)" offset="0.0234375"/><stop stop-opacity="1" stop-color="rgb(100%, 27.801514%, 33.24585%)" offset="0.0273437"/><stop stop-opacity="1" stop-color="rgb(100%, 28.02124%, 33.346558%)" offset="0.03125"/><stop stop-opacity="1" stop-color="rgb(100%, 28.239441%, 33.44574%)" offset="0.0351562"/><stop stop-opacity="1" stop-color="rgb(100%, 28.459167%, 33.544922%)" offset="0.0390625"/><stop stop-opacity="1" stop-color="rgb(100%, 28.678894%, 33.644104%)" offset="0.0429687"/><stop stop-opacity="1" stop-color="rgb(100%, 28.898621%, 33.744812%)" offset="0.046875"/><stop stop-opacity="1" stop-color="rgb(100%, 29.116821%, 33.843994%)" offset="0.0507812"/><stop stop-opacity="1" stop-color="rgb(100%, 29.336548%, 33.943176%)" offset="0.0546875"/><stop stop-opacity="1" stop-color="rgb(100%, 29.554749%, 34.042358%)" offset="0.0585937"/><stop stop-opacity="1" stop-color="rgb(100%, 29.774475%, 34.143066%)" offset="0.0625"/><stop stop-opacity="1" stop-color="rgb(100%, 29.992676%, 34.242249%)" offset="0.0664062"/><stop stop-opacity="1" stop-color="rgb(100%, 30.212402%, 34.341431%)" offset="0.0703125"/><stop stop-opacity="1" stop-color="rgb(100%, 30.430603%, 34.440613%)" offset="0.0742187"/><stop stop-opacity="1" stop-color="rgb(100%, 30.65033%, 34.541321%)" offset="0.078125"/><stop stop-opacity="1" stop-color="rgb(100%, 30.86853%, 34.640503%)" offset="0.0820312"/><stop stop-opacity="1" stop-color="rgb(100%, 31.088257%, 34.739685%)" offset="0.0859375"/><stop stop-opacity="1" stop-color="rgb(100%, 31.306458%, 34.838867%)" offset="0.0898437"/><stop stop-opacity="1" stop-color="rgb(100%, 31.526184%, 34.939575%)" offset="0.09375"/><stop stop-opacity="1" stop-color="rgb(100%, 31.744385%, 35.038757%)" offset="0.0976562"/><stop stop-opacity="1" stop-color="rgb(100%, 31.964111%, 35.137939%)" offset="0.101562"/><stop stop-opacity="1" stop-color="rgb(100%, 32.183838%, 35.237122%)" offset="0.105469"/><stop stop-opacity="1" stop-color="rgb(100%, 32.403564%, 35.33783%)" offset="0.109375"/><stop stop-opacity="1" stop-color="rgb(100%, 32.621765%, 35.437012%)" offset="0.113281"/><stop stop-opacity="1" stop-color="rgb(100%, 32.841492%, 35.536194%)" offset="0.117187"/><stop stop-opacity="1" stop-color="rgb(100%, 33.059692%, 35.635376%)" offset="0.121094"/><stop stop-opacity="1" stop-color="rgb(100%, 33.279419%, 35.736084%)" offset="0.125"/><stop stop-opacity="1" stop-color="rgb(100%, 33.49762%, 35.835266%)" offset="0.128906"/><stop stop-opacity="1" stop-color="rgb(100%, 33.717346%, 35.934448%)" offset="0.132812"/><stop stop-opacity="1" stop-color="rgb(100%, 33.935547%, 36.03363%)" offset="0.136719"/><stop stop-opacity="1" stop-color="rgb(100%, 34.155273%, 36.134338%)" offset="0.140625"/><stop stop-opacity="1" stop-color="rgb(100%, 34.373474%, 36.233521%)" offset="0.144531"/><stop stop-opacity="1" stop-color="rgb(100%, 34.593201%, 36.332703%)" offset="0.148437"/><stop stop-opacity="1" stop-color="rgb(100%, 34.811401%, 36.431885%)" offset="0.152344"/><stop stop-opacity="1" stop-color="rgb(100%, 35.031128%, 36.532593%)" offset="0.15625"/><stop stop-opacity="1" stop-color="rgb(100%, 35.250854%, 36.631775%)" offset="0.160156"/><stop stop-opacity="1" stop-color="rgb(100%, 35.470581%, 36.730957%)" offset="0.164062"/><stop stop-opacity="1" stop-color="rgb(100%, 35.688782%, 36.830139%)" offset="0.167969"/><stop stop-opacity="1" stop-color="rgb(100%, 35.908508%, 36.930847%)" offset="0.171875"/><stop stop-opacity="1" stop-color="rgb(100%, 36.126709%, 37.030029%)" offset="0.175781"/><stop stop-opacity="1" stop-color="rgb(100%, 36.346436%, 37.129211%)" offset="0.179687"/><stop stop-opacity="1" stop-color="rgb(100%, 36.564636%, 37.228394%)" offset="0.183594"/><stop stop-opacity="1" stop-color="rgb(100%, 36.784363%, 37.329102%)" offset="0.1875"/><stop stop-opacity="1" stop-color="rgb(100%, 37.002563%, 37.428284%)" offset="0.191406"/><stop stop-opacity="1" stop-color="rgb(100%, 37.22229%, 37.527466%)" offset="0.195312"/><stop stop-opacity="1" stop-color="rgb(100%, 37.440491%, 37.626648%)" offset="0.199219"/><stop stop-opacity="1" stop-color="rgb(100%, 37.660217%, 37.727356%)" offset="0.203125"/><stop stop-opacity="1" stop-color="rgb(100%, 37.878418%, 37.826538%)" offset="0.207031"/><stop stop-opacity="1" stop-color="rgb(100%, 38.098145%, 37.92572%)" offset="0.210937"/><stop stop-opacity="1" stop-color="rgb(100%, 38.316345%, 38.024902%)" offset="0.214844"/><stop stop-opacity="1" stop-color="rgb(100%, 38.536072%, 38.12561%)" offset="0.21875"/><stop stop-opacity="1" stop-color="rgb(100%, 38.755798%, 38.224792%)" offset="0.222656"/><stop stop-opacity="1" stop-color="rgb(100%, 38.975525%, 38.323975%)" offset="0.226562"/><stop stop-opacity="1" stop-color="rgb(100%, 39.193726%, 38.423157%)" offset="0.230469"/><stop stop-opacity="1" stop-color="rgb(100%, 39.413452%, 38.523865%)" offset="0.234375"/><stop stop-opacity="1" stop-color="rgb(100%, 39.631653%, 38.623047%)" offset="0.238281"/><stop stop-opacity="1" stop-color="rgb(100%, 39.851379%, 38.722229%)" offset="0.242187"/><stop stop-opacity="1" stop-color="rgb(100%, 40.06958%, 38.821411%)" offset="0.246094"/><stop stop-opacity="1" stop-color="rgb(100%, 40.289307%, 38.922119%)" offset="0.25"/><stop stop-opacity="1" stop-color="rgb(100%, 40.507507%, 39.021301%)" offset="0.253906"/><stop stop-opacity="1" stop-color="rgb(100%, 40.727234%, 39.120483%)" offset="0.257812"/><stop stop-opacity="1" stop-color="rgb(100%, 40.945435%, 39.219666%)" offset="0.261719"/><stop stop-opacity="1" stop-color="rgb(100%, 41.165161%, 39.320374%)" offset="0.265625"/><stop stop-opacity="1" stop-color="rgb(100%, 41.383362%, 39.419556%)" offset="0.269531"/><stop stop-opacity="1" stop-color="rgb(100%, 41.603088%, 39.518738%)" offset="0.273437"/><stop stop-opacity="1" stop-color="rgb(100%, 41.821289%, 39.61792%)" offset="0.277344"/><stop stop-opacity="1" stop-color="rgb(100%, 42.041016%, 39.718628%)" offset="0.28125"/><stop stop-opacity="1" stop-color="rgb(100%, 42.260742%, 39.81781%)" offset="0.285156"/><stop stop-opacity="1" stop-color="rgb(100%, 42.480469%, 39.916992%)" offset="0.289062"/><stop stop-opacity="1" stop-color="rgb(100%, 42.698669%, 40.016174%)" offset="0.292969"/><stop stop-opacity="1" stop-color="rgb(100%, 42.918396%, 40.116882%)" offset="0.296875"/><stop stop-opacity="1" stop-color="rgb(100%, 43.136597%, 40.216064%)" offset="0.300781"/><stop stop-opacity="1" stop-color="rgb(100%, 43.356323%, 40.315247%)" offset="0.304687"/><stop stop-opacity="1" stop-color="rgb(100%, 43.574524%, 40.414429%)" offset="0.308594"/><stop stop-opacity="1" stop-color="rgb(100%, 43.79425%, 40.515137%)" offset="0.3125"/><stop stop-opacity="1" stop-color="rgb(100%, 44.012451%, 40.614319%)" offset="0.316406"/><stop stop-opacity="1" stop-color="rgb(100%, 44.232178%, 40.713501%)" offset="0.320312"/><stop stop-opacity="1" stop-color="rgb(100%, 44.450378%, 40.812683%)" offset="0.324219"/><stop stop-opacity="1" stop-color="rgb(100%, 44.670105%, 40.913391%)" offset="0.328125"/><stop stop-opacity="1" stop-color="rgb(100%, 44.888306%, 41.012573%)" offset="0.332031"/><stop stop-opacity="1" stop-color="rgb(100%, 45.108032%, 41.111755%)" offset="0.335937"/><stop stop-opacity="1" stop-color="rgb(100%, 45.327759%, 41.210938%)" offset="0.339844"/><stop stop-opacity="1" stop-color="rgb(100%, 45.547485%, 41.311646%)" offset="0.34375"/><stop stop-opacity="1" stop-color="rgb(100%, 45.765686%, 41.410828%)" offset="0.347656"/><stop stop-opacity="1" stop-color="rgb(100%, 45.985413%, 41.51001%)" offset="0.351562"/><stop stop-opacity="1" stop-color="rgb(100%, 46.203613%, 41.609192%)" offset="0.355469"/><stop stop-opacity="1" stop-color="rgb(100%, 46.42334%, 41.7099%)" offset="0.359375"/><stop stop-opacity="1" stop-color="rgb(100%, 46.641541%, 41.809082%)" offset="0.363281"/><stop stop-opacity="1" stop-color="rgb(100%, 46.861267%, 41.908264%)" offset="0.367187"/><stop stop-opacity="1" stop-color="rgb(100%, 47.079468%, 42.007446%)" offset="0.371094"/><stop stop-opacity="1" stop-color="rgb(100%, 47.299194%, 42.108154%)" offset="0.375"/><stop stop-opacity="1" stop-color="rgb(100%, 47.517395%, 42.207336%)" offset="0.378906"/><stop stop-opacity="1" stop-color="rgb(100%, 47.737122%, 42.306519%)" offset="0.382812"/><stop stop-opacity="1" stop-color="rgb(100%, 47.955322%, 42.405701%)" offset="0.386719"/><stop stop-opacity="1" stop-color="rgb(100%, 48.175049%, 42.506409%)" offset="0.390625"/><stop stop-opacity="1" stop-color="rgb(100%, 48.39325%, 42.605591%)" offset="0.394531"/><stop stop-opacity="1" stop-color="rgb(100%, 48.612976%, 42.704773%)" offset="0.398437"/><stop stop-opacity="1" stop-color="rgb(100%, 48.832703%, 42.803955%)" offset="0.402344"/><stop stop-opacity="1" stop-color="rgb(100%, 49.052429%, 42.904663%)" offset="0.40625"/><stop stop-opacity="1" stop-color="rgb(100%, 49.27063%, 43.003845%)" offset="0.410156"/><stop stop-opacity="1" stop-color="rgb(100%, 49.490356%, 43.103027%)" offset="0.414062"/><stop stop-opacity="1" stop-color="rgb(100%, 49.708557%, 43.202209%)" offset="0.417969"/><stop stop-opacity="1" stop-color="rgb(100%, 49.928284%, 43.302917%)" offset="0.421875"/><stop stop-opacity="1" stop-color="rgb(100%, 50.146484%, 43.4021%)" offset="0.425781"/><stop stop-opacity="1" stop-color="rgb(100%, 50.366211%, 43.501282%)" offset="0.429687"/><stop stop-opacity="1" stop-color="rgb(100%, 50.584412%, 43.600464%)" offset="0.433594"/><stop stop-opacity="1" stop-color="rgb(100%, 50.804138%, 43.701172%)" offset="0.4375"/><stop stop-opacity="1" stop-color="rgb(100%, 51.022339%, 43.800354%)" offset="0.441406"/><stop stop-opacity="1" stop-color="rgb(100%, 51.242065%, 43.899536%)" offset="0.445312"/><stop stop-opacity="1" stop-color="rgb(100%, 51.460266%, 43.998718%)" offset="0.449219"/><stop stop-opacity="1" stop-color="rgb(100%, 51.679993%, 44.099426%)" offset="0.453125"/><stop stop-opacity="1" stop-color="rgb(100%, 51.898193%, 44.198608%)" offset="0.457031"/><stop stop-opacity="1" stop-color="rgb(100%, 52.11792%, 44.297791%)" offset="0.460937"/><stop stop-opacity="1" stop-color="rgb(100%, 52.337646%, 44.396973%)" offset="0.464844"/><stop stop-opacity="1" stop-color="rgb(100%, 52.557373%, 44.497681%)" offset="0.46875"/><stop stop-opacity="1" stop-color="rgb(100%, 52.775574%, 44.596863%)" offset="0.472656"/><stop stop-opacity="1" stop-color="rgb(100%, 52.9953%, 44.697571%)" offset="0.476562"/><stop stop-opacity="1" stop-color="rgb(100%, 53.213501%, 44.796753%)" offset="0.480469"/><stop stop-opacity="1" stop-color="rgb(100%, 53.433228%, 44.895935%)" offset="0.484375"/><stop stop-opacity="1" stop-color="rgb(100%, 53.651428%, 44.995117%)" offset="0.488281"/><stop stop-opacity="1" stop-color="rgb(100%, 53.871155%, 45.095825%)" offset="0.492187"/><stop stop-opacity="1" stop-color="rgb(100%, 54.089355%, 45.195007%)" offset="0.496094"/><stop stop-opacity="1" stop-color="rgb(100%, 54.309082%, 45.294189%)" offset="0.5"/><stop stop-opacity="1" stop-color="rgb(100%, 54.527283%, 45.393372%)" offset="0.503906"/><stop stop-opacity="1" stop-color="rgb(100%, 54.747009%, 45.49408%)" offset="0.507812"/><stop stop-opacity="1" stop-color="rgb(100%, 54.96521%, 45.593262%)" offset="0.511719"/><stop stop-opacity="1" stop-color="rgb(100%, 55.184937%, 45.692444%)" offset="0.515625"/><stop stop-opacity="1" stop-color="rgb(100%, 55.403137%, 45.791626%)" offset="0.519531"/><stop stop-opacity="1" stop-color="rgb(100%, 55.622864%, 45.892334%)" offset="0.523437"/><stop stop-opacity="1" stop-color="rgb(100%, 55.84259%, 45.991516%)" offset="0.527344"/><stop stop-opacity="1" stop-color="rgb(100%, 56.062317%, 46.090698%)" offset="0.53125"/><stop stop-opacity="1" stop-color="rgb(100%, 56.280518%, 46.18988%)" offset="0.535156"/><stop stop-opacity="1" stop-color="rgb(100%, 56.500244%, 46.290588%)" offset="0.539062"/><stop stop-opacity="1" stop-color="rgb(100%, 56.718445%, 46.389771%)" offset="0.542969"/><stop stop-opacity="1" stop-color="rgb(100%, 56.938171%, 46.488953%)" offset="0.546875"/><stop stop-opacity="1" stop-color="rgb(100%, 57.156372%, 46.588135%)" offset="0.550781"/><stop stop-opacity="1" stop-color="rgb(100%, 57.376099%, 46.688843%)" offset="0.554687"/><stop stop-opacity="1" stop-color="rgb(100%, 57.594299%, 46.788025%)" offset="0.558594"/><stop stop-opacity="1" stop-color="rgb(100%, 57.814026%, 46.887207%)" offset="0.5625"/><stop stop-opacity="1" stop-color="rgb(100%, 58.032227%, 46.986389%)" offset="0.566406"/><stop stop-opacity="1" stop-color="rgb(100%, 58.251953%, 47.087097%)" offset="0.570312"/><stop stop-opacity="1" stop-color="rgb(100%, 58.470154%, 47.186279%)" offset="0.574219"/><stop stop-opacity="1" stop-color="rgb(100%, 58.68988%, 47.285461%)" offset="0.578125"/><stop stop-opacity="1" stop-color="rgb(100%, 58.909607%, 47.384644%)" offset="0.582031"/><stop stop-opacity="1" stop-color="rgb(100%, 59.129333%, 47.485352%)" offset="0.585937"/><stop stop-opacity="1" stop-color="rgb(100%, 59.347534%, 47.584534%)" offset="0.589844"/><stop stop-opacity="1" stop-color="rgb(100%, 59.567261%, 47.683716%)" offset="0.59375"/><stop stop-opacity="1" stop-color="rgb(100%, 59.785461%, 47.782898%)" offset="0.597656"/><stop stop-opacity="1" stop-color="rgb(100%, 60.005188%, 47.883606%)" offset="0.601562"/><stop stop-opacity="1" stop-color="rgb(100%, 60.223389%, 47.982788%)" offset="0.605469"/><stop stop-opacity="1" stop-color="rgb(100%, 60.443115%, 48.08197%)" offset="0.609375"/><stop stop-opacity="1" stop-color="rgb(100%, 60.661316%, 48.181152%)" offset="0.613281"/><stop stop-opacity="1" stop-color="rgb(100%, 60.881042%, 48.28186%)" offset="0.617187"/><stop stop-opacity="1" stop-color="rgb(100%, 61.099243%, 48.381042%)" offset="0.621094"/><stop stop-opacity="1" stop-color="rgb(100%, 61.31897%, 48.480225%)" offset="0.625"/><stop stop-opacity="1" stop-color="rgb(100%, 61.53717%, 48.579407%)" offset="0.628906"/><stop stop-opacity="1" stop-color="rgb(100%, 61.756897%, 48.680115%)" offset="0.632812"/><stop stop-opacity="1" stop-color="rgb(100%, 61.975098%, 48.779297%)" offset="0.636719"/><stop stop-opacity="1" stop-color="rgb(100%, 62.194824%, 48.878479%)" offset="0.640625"/><stop stop-opacity="1" stop-color="rgb(100%, 62.414551%, 48.977661%)" offset="0.644531"/><stop stop-opacity="1" stop-color="rgb(100%, 62.634277%, 49.078369%)" offset="0.648437"/><stop stop-opacity="1" stop-color="rgb(100%, 62.852478%, 49.177551%)" offset="0.652344"/><stop stop-opacity="1" stop-color="rgb(100%, 63.072205%, 49.276733%)" offset="0.65625"/><stop stop-opacity="1" stop-color="rgb(100%, 63.290405%, 49.375916%)" offset="0.660156"/><stop stop-opacity="1" stop-color="rgb(100%, 63.510132%, 49.476624%)" offset="0.664062"/><stop stop-opacity="1" stop-color="rgb(100%, 63.728333%, 49.575806%)" offset="0.667969"/><stop stop-opacity="1" stop-color="rgb(100%, 63.948059%, 49.674988%)" offset="0.671875"/><stop stop-opacity="1" stop-color="rgb(100%, 64.16626%, 49.77417%)" offset="0.675781"/><stop stop-opacity="1" stop-color="rgb(100%, 64.385986%, 49.874878%)" offset="0.679687"/><stop stop-opacity="1" stop-color="rgb(100%, 64.604187%, 49.97406%)" offset="0.683594"/><stop stop-opacity="1" stop-color="rgb(100%, 64.823914%, 50.073242%)" offset="0.6875"/><stop stop-opacity="1" stop-color="rgb(100%, 65.042114%, 50.172424%)" offset="0.691406"/><stop stop-opacity="1" stop-color="rgb(100%, 65.261841%, 50.273132%)" offset="0.695312"/><stop stop-opacity="1" stop-color="rgb(100%, 65.480042%, 50.372314%)" offset="0.699219"/><stop stop-opacity="1" stop-color="rgb(100%, 65.699768%, 50.471497%)" offset="0.703125"/><stop stop-opacity="1" stop-color="rgb(100%, 65.919495%, 50.570679%)" offset="0.707031"/><stop stop-opacity="1" stop-color="rgb(100%, 66.139221%, 50.671387%)" offset="0.710937"/><stop stop-opacity="1" stop-color="rgb(100%, 66.357422%, 50.770569%)" offset="0.714844"/><stop stop-opacity="1" stop-color="rgb(100%, 66.577148%, 50.869751%)" offset="0.71875"/><stop stop-opacity="1" stop-color="rgb(100%, 66.795349%, 50.968933%)" offset="0.722656"/><stop stop-opacity="1" stop-color="rgb(100%, 67.015076%, 51.069641%)" offset="0.726562"/><stop stop-opacity="1" stop-color="rgb(100%, 67.233276%, 51.168823%)" offset="0.730469"/><stop stop-opacity="1" stop-color="rgb(100%, 67.453003%, 51.268005%)" offset="0.734375"/><stop stop-opacity="1" stop-color="rgb(100%, 67.671204%, 51.367188%)" offset="0.738281"/><stop stop-opacity="1" stop-color="rgb(100%, 67.89093%, 51.467896%)" offset="0.742187"/><stop stop-opacity="1" stop-color="rgb(100%, 68.109131%, 51.567078%)" offset="0.746094"/><stop stop-opacity="1" stop-color="rgb(100%, 68.328857%, 51.66626%)" offset="0.75"/><stop stop-opacity="1" stop-color="rgb(100%, 68.547058%, 51.765442%)" offset="0.753906"/><stop stop-opacity="1" stop-color="rgb(100%, 68.766785%, 51.86615%)" offset="0.757812"/><stop stop-opacity="1" stop-color="rgb(100%, 68.986511%, 51.965332%)" offset="0.761719"/><stop stop-opacity="1" stop-color="rgb(100%, 69.206238%, 52.064514%)" offset="0.765625"/><stop stop-opacity="1" stop-color="rgb(100%, 69.424438%, 52.163696%)" offset="0.769531"/><stop stop-opacity="1" stop-color="rgb(100%, 69.644165%, 52.264404%)" offset="0.773437"/><stop stop-opacity="1" stop-color="rgb(100%, 69.862366%, 52.363586%)" offset="0.777344"/><stop stop-opacity="1" stop-color="rgb(100%, 70.082092%, 52.462769%)" offset="0.78125"/><stop stop-opacity="1" stop-color="rgb(100%, 70.300293%, 52.561951%)" offset="0.785156"/><stop stop-opacity="1" stop-color="rgb(100%, 70.52002%, 52.662659%)" offset="0.789062"/><stop stop-opacity="1" stop-color="rgb(100%, 70.73822%, 52.761841%)" offset="0.792969"/><stop stop-opacity="1" stop-color="rgb(100%, 70.957947%, 52.861023%)" offset="0.796875"/><stop stop-opacity="1" stop-color="rgb(100%, 71.176147%, 52.960205%)" offset="0.800781"/><stop stop-opacity="1" stop-color="rgb(100%, 71.395874%, 53.060913%)" offset="0.804687"/><stop stop-opacity="1" stop-color="rgb(100%, 71.614075%, 53.160095%)" offset="0.808594"/><stop stop-opacity="1" stop-color="rgb(100%, 71.833801%, 53.259277%)" offset="0.8125"/><stop stop-opacity="1" stop-color="rgb(100%, 72.052002%, 53.358459%)" offset="0.816406"/><stop stop-opacity="1" stop-color="rgb(100%, 72.271729%, 53.459167%)" offset="0.820312"/><stop stop-opacity="1" stop-color="rgb(100%, 72.491455%, 53.55835%)" offset="0.824219"/><stop stop-opacity="1" stop-color="rgb(100%, 72.711182%, 53.657532%)" offset="0.828125"/><stop stop-opacity="1" stop-color="rgb(100%, 72.929382%, 53.756714%)" offset="0.832031"/><stop stop-opacity="1" stop-color="rgb(100%, 73.149109%, 53.857422%)" offset="0.835937"/><stop stop-opacity="1" stop-color="rgb(100%, 73.36731%, 53.956604%)" offset="0.839844"/><stop stop-opacity="1" stop-color="rgb(100%, 73.587036%, 54.055786%)" offset="0.84375"/><stop stop-opacity="1" stop-color="rgb(100%, 73.805237%, 54.154968%)" offset="0.847656"/><stop stop-opacity="1" stop-color="rgb(100%, 74.024963%, 54.255676%)" offset="0.851562"/><stop stop-opacity="1" stop-color="rgb(100%, 74.243164%, 54.354858%)" offset="0.855469"/><stop stop-opacity="1" stop-color="rgb(100%, 74.462891%, 54.454041%)" offset="0.859375"/><stop stop-opacity="1" stop-color="rgb(100%, 74.681091%, 54.553223%)" offset="0.863281"/><stop stop-opacity="1" stop-color="rgb(100%, 74.900818%, 54.653931%)" offset="0.867187"/><stop stop-opacity="1" stop-color="rgb(100%, 75.119019%, 54.753113%)" offset="0.871094"/><stop stop-opacity="1" stop-color="rgb(100%, 75.338745%, 54.852295%)" offset="0.875"/><stop stop-opacity="1" stop-color="rgb(100%, 75.556946%, 54.951477%)" offset="0.878906"/><stop stop-opacity="1" stop-color="rgb(100%, 75.776672%, 55.052185%)" offset="0.882812"/><stop stop-opacity="1" stop-color="rgb(100%, 75.996399%, 55.151367%)" offset="0.886719"/><stop stop-opacity="1" stop-color="rgb(100%, 76.216125%, 55.250549%)" offset="0.890625"/><stop stop-opacity="1" stop-color="rgb(100%, 76.434326%, 55.349731%)" offset="0.894531"/><stop stop-opacity="1" stop-color="rgb(100%, 76.654053%, 55.450439%)" offset="0.898437"/><stop stop-opacity="1" stop-color="rgb(100%, 76.872253%, 55.549622%)" offset="0.902344"/><stop stop-opacity="1" stop-color="rgb(100%, 77.09198%, 55.648804%)" offset="0.90625"/><stop stop-opacity="1" stop-color="rgb(100%, 77.310181%, 55.747986%)" offset="0.910156"/><stop stop-opacity="1" stop-color="rgb(100%, 77.529907%, 55.848694%)" offset="0.914062"/><stop stop-opacity="1" stop-color="rgb(100%, 77.748108%, 55.947876%)" offset="0.917969"/><stop stop-opacity="1" stop-color="rgb(100%, 77.967834%, 56.048584%)" offset="0.921875"/><stop stop-opacity="1" stop-color="rgb(100%, 78.186035%, 56.147766%)" offset="0.925781"/><stop stop-opacity="1" stop-color="rgb(100%, 78.405762%, 56.246948%)" offset="0.929687"/><stop stop-opacity="1" stop-color="rgb(100%, 78.623962%, 56.34613%)" offset="0.933594"/><stop stop-opacity="1" stop-color="rgb(100%, 78.843689%, 56.446838%)" offset="0.9375"/><stop stop-opacity="1" stop-color="rgb(100%, 79.06189%, 56.546021%)" offset="0.941406"/><stop stop-opacity="1" stop-color="rgb(100%, 79.281616%, 56.645203%)" offset="0.945312"/><stop stop-opacity="1" stop-color="rgb(100%, 79.501343%, 56.744385%)" offset="0.949219"/><stop stop-opacity="1" stop-color="rgb(100%, 79.721069%, 56.845093%)" offset="0.953125"/><stop stop-opacity="1" stop-color="rgb(100%, 79.93927%, 56.944275%)" offset="0.957031"/><stop stop-opacity="1" stop-color="rgb(100%, 80.158997%, 57.043457%)" offset="0.960937"/><stop stop-opacity="1" stop-color="rgb(100%, 80.377197%, 57.142639%)" offset="0.964844"/><stop stop-opacity="1" stop-color="rgb(100%, 80.596924%, 57.243347%)" offset="0.96875"/><stop stop-opacity="1" stop-color="rgb(100%, 80.815125%, 57.342529%)" offset="0.972656"/><stop stop-opacity="1" stop-color="rgb(100%, 81.034851%, 57.441711%)" offset="0.976562"/><stop stop-opacity="1" stop-color="rgb(100%, 81.253052%, 57.540894%)" offset="0.980469"/><stop stop-opacity="1" stop-color="rgb(100%, 81.472778%, 57.641602%)" offset="0.984375"/><stop stop-opacity="1" stop-color="rgb(100%, 81.690979%, 57.740784%)" offset="0.988281"/><stop stop-opacity="1" stop-color="rgb(100%, 81.910706%, 57.839966%)" offset="0.992188"/><stop stop-opacity="1" stop-color="rgb(100%, 82.128906%, 57.939148%)" offset="0.996094"/><stop stop-opacity="1" stop-color="rgb(100%, 82.348633%, 58.039856%)" offset="1"/></linearGradient><clipPath id="89d428f71f"><rect x="0" width="94" y="0" height="94"/></clipPath><clipPath id="22da82263f"><path d="M 13.46875 22.796875 L 81.417969 22.796875 L 81.417969 81 L 13.46875 81 Z M 13.46875 22.796875 " clip-rule="nonzero"/></clipPath><clipPath id="e0685ea2a9"><rect x="0" width="263" y="0" height="88"/></clipPath></defs><g clip-path="url(#6598637588)"><path fill="#ffffff" d="M 0.847656 0 L 383.152344 0 L 383.152344 112.003906 L 0.847656 112.003906 Z M 0.847656 0 " fill-opacity="1" fill-rule="nonzero"/></g><g clip-path="url(#4e993f3ee5)"><g clip-path="url(#7f54c90acf)"><g transform="matrix(1, 0, 0, 1, 0, 9)"><g clip-path="url(#89d428f71f)"><g clip-path="url(#cc03852629)"><g clip-path="url(#786c6bb636)"><path fill="url(#972b1658e8)" d="M 0.847656 0.328125 L 0.847656 93.355469 L 93.875 93.355469 L 93.875 0.328125 Z M 0.847656 0.328125 " fill-rule="nonzero"/></g></g></g></g></g></g><path fill="#fff3c2" d="M 47.796875 76.777344 L 47.796875 85.617188 C 47.796875 87.589844 49.855469 88.878906 51.65625 88.105469 C 57.492188 85.445312 65.476562 80.640625 72.253906 72.3125 C 75.515625 68.28125 77.832031 64.332031 79.378906 60.898438 C 68.820312 66.222656 58.351562 71.457031 47.796875 76.777344 Z M 47.796875 76.777344 " fill-opacity="1" fill-rule="nonzero"/><g clip-path="url(#22da82263f)"><path fill="#fff3c2" d="M 47.367188 22.796875 C 28.65625 22.796875 13.554688 35.582031 13.554688 51.460938 C 13.554688 67.25 28.65625 80.125 47.367188 80.125 C 66.074219 80.125 81.179688 67.335938 81.179688 51.460938 C 81.179688 35.667969 66.074219 22.796875 47.367188 22.796875 Z M 30.804688 58.238281 C 28.058594 58.238281 25.824219 56.007812 25.824219 53.261719 C 25.824219 50.515625 28.058594 48.285156 30.804688 48.285156 C 33.550781 48.285156 35.78125 50.515625 35.78125 53.261719 C 35.78125 56.007812 33.550781 58.238281 30.804688 58.238281 Z M 47.367188 58.238281 C 44.621094 58.238281 42.390625 56.007812 42.390625 53.261719 C 42.390625 50.515625 44.621094 48.285156 47.367188 48.285156 C 50.113281 48.285156 52.34375 50.515625 52.34375 53.261719 C 52.429688 56.007812 50.199219 58.238281 47.367188 58.238281 Z M 64.015625 58.238281 C 61.269531 58.238281 59.039062 56.007812 59.039062 53.261719 C 59.039062 50.515625 61.269531 48.285156 64.015625 48.285156 C 66.761719 48.285156 68.992188 50.515625 68.992188 53.261719 C 68.992188 56.007812 66.761719 58.238281 64.015625 58.238281 Z M 64.015625 58.238281 " fill-opacity="1" fill-rule="nonzero"/></g><g transform="matrix(1, 0, 0, 1, 104, 11)"><g clip-path="url(#e0685ea2a9)"><g fill="#ffffff" fill-opacity="1"><g transform="translate(0.486056, 65.811607)"><g><path d="M 23.640625 -30.453125 C 23.929688 -30.285156 24.078125 -29.894531 24.078125 -29.28125 C 24.078125 -28.664062 23.929688 -27.847656 23.640625 -26.828125 C 23.085938 -24.953125 22.492188 -24.164062 21.859375 -24.46875 L 21.796875 -24.46875 L 19.5625 -25.359375 C 18.332031 -25.910156 16.832031 -26.1875 15.0625 -26.1875 C 13.300781 -26.1875 12.175781 -25.460938 11.6875 -24.015625 C 11.195312 -22.578125 10.953125 -19.796875 10.953125 -15.671875 C 10.953125 -11.554688 11.257812 -8.785156 11.875 -7.359375 C 12.5 -5.929688 13.679688 -5.21875 15.421875 -5.21875 C 17.921875 -5.21875 19.875 -5.363281 21.28125 -5.65625 C 22.6875 -5.957031 23.410156 -6.109375 23.453125 -6.109375 C 23.742188 -6.203125 23.984375 -6.035156 24.171875 -5.609375 C 24.367188 -5.179688 24.46875 -4.179688 24.46875 -2.609375 C 24.46875 -1.035156 24.128906 -0.164062 23.453125 0 C 20.816406 0.675781 18.222656 1.015625 15.671875 1.015625 C 10.535156 1.015625 7.019531 -0.203125 5.125 -2.640625 C 3.238281 -5.085938 2.296875 -9.519531 2.296875 -15.9375 C 2.296875 -20.5625 2.707031 -24.050781 3.53125 -26.40625 C 4.363281 -28.769531 5.691406 -30.394531 7.515625 -31.28125 C 9.347656 -32.175781 12.003906 -32.625 15.484375 -32.625 C 18.960938 -32.625 21.660156 -31.898438 23.578125 -30.453125 Z M 23.640625 -30.453125 "/></g></g></g><g fill="#ffffff" fill-opacity="1"><g transform="translate(26.668356, 65.811607)"><g><path d="M 2.359375 -15.9375 C 2.359375 -20.5625 2.757812 -24.0625 3.5625 -26.4375 C 4.375 -28.820312 5.648438 -30.445312 7.390625 -31.3125 C 9.128906 -32.1875 11.695312 -32.625 15.09375 -32.625 C 18.5 -32.625 21.070312 -32.1875 22.8125 -31.3125 C 24.550781 -30.445312 25.820312 -28.820312 26.625 -26.4375 C 27.4375 -24.0625 27.84375 -20.5625 27.84375 -15.9375 C 27.84375 -9.5625 26.925781 -5.140625 25.09375 -2.671875 C 23.269531 -0.210938 19.9375 1.015625 15.09375 1.015625 C 10.257812 1.015625 6.925781 -0.210938 5.09375 -2.671875 C 3.269531 -5.140625 2.359375 -9.5625 2.359375 -15.9375 Z M 11.015625 -15.9375 C 11.015625 -8.789062 11.695312 -5.21875 13.0625 -5.21875 C 14.925781 -5.21875 16.304688 -5.515625 17.203125 -6.109375 C 17.671875 -6.453125 17.988281 -7.070312 18.15625 -7.96875 C 18.5 -9.75 18.671875 -12.40625 18.671875 -15.9375 C 18.671875 -22.976562 17.988281 -26.5 16.625 -26.5 C 14.082031 -26.5 12.507812 -25.914062 11.90625 -24.75 C 11.3125 -23.582031 11.015625 -20.644531 11.015625 -15.9375 Z M 11.015625 -15.9375 "/></g></g></g><g fill="#ffffff" fill-opacity="1"><g transform="translate(56.863994, 65.811607)"><g><path d="M 35.484375 0 L 35.484375 -19.375 C 35.484375 -24.125 35.144531 -26.5 34.46875 -26.5 C 32.976562 -26.5 30.832031 -25.671875 28.03125 -24.015625 C 28.25 -22.453125 28.359375 -20.90625 28.359375 -19.375 L 28.359375 0 C 28.359375 0.25 28.335938 0.421875 28.296875 0.515625 C 28.078125 0.847656 27.253906 1.015625 25.828125 1.015625 C 24.410156 1.015625 22.945312 0.90625 21.4375 0.6875 C 19.925781 0.476562 19.171875 0.25 19.171875 0 L 19.171875 -21.734375 C 19.085938 -24.910156 18.75 -26.5 18.15625 -26.5 C 16.625 -26.5 14.585938 -25.738281 12.046875 -24.21875 L 12.046875 0 C 12.046875 0.25 12.023438 0.421875 11.984375 0.515625 C 11.765625 0.847656 10.941406 1.015625 9.515625 1.015625 C 8.097656 1.015625 6.632812 0.90625 5.125 0.6875 C 3.625 0.476562 2.875 0.25 2.875 0 L 2.875 -31.609375 C 2.875 -32.285156 3.722656 -32.625 5.421875 -32.625 C 8.097656 -32.625 9.625 -32.285156 10 -31.609375 C 10 -31.523438 10.019531 -31.484375 10.0625 -31.484375 L 11.28125 -29.0625 C 14.84375 -31.4375 17.5 -32.625 19.25 -32.625 C 22.976562 -32.625 25.503906 -31.265625 26.828125 -28.546875 C 30.734375 -31.265625 33.644531 -32.625 35.5625 -32.625 C 38.695312 -32.625 41 -31.644531 42.46875 -29.6875 C 43.9375 -27.738281 44.671875 -24.300781 44.671875 -19.375 L 44.671875 0 C 44.671875 0.25 44.648438 0.421875 44.609375 0.515625 C 44.390625 0.847656 43.566406 1.015625 42.140625 1.015625 C 40.722656 1.015625 39.257812 0.90625 37.75 0.6875 C 36.238281 0.476562 35.484375 0.25 35.484375 0 Z M 35.484375 0 "/></g></g></g><g fill="#ffffff" fill-opacity="1"><g transform="translate(104.323387, 65.811607)"><g><path d="M 35.484375 0 L 35.484375 -19.375 C 35.484375 -24.125 35.144531 -26.5 34.46875 -26.5 C 32.976562 -26.5 30.832031 -25.671875 28.03125 -24.015625 C 28.25 -22.453125 28.359375 -20.90625 28.359375 -19.375 L 28.359375 0 C 28.359375 0.25 28.335938 0.421875 28.296875 0.515625 C 28.078125 0.847656 27.253906 1.015625 25.828125 1.015625 C 24.410156 1.015625 22.945312 0.90625 21.4375 0.6875 C 19.925781 0.476562 19.171875 0.25 19.171875 0 L 19.171875 -21.734375 C 19.085938 -24.910156 18.75 -26.5 18.15625 -26.5 C 16.625 -26.5 14.585938 -25.738281 12.046875 -24.21875 L 12.046875 0 C 12.046875 0.25 12.023438 0.421875 11.984375 0.515625 C 11.765625 0.847656 10.941406 1.015625 9.515625 1.015625 C 8.097656 1.015625 6.632812 0.90625 5.125 0.6875 C 3.625 0.476562 2.875 0.25 2.875 0 L 2.875 -31.609375 C 2.875 -32.285156 3.722656 -32.625 5.421875 -32.625 C 8.097656 -32.625 9.625 -32.285156 10 -31.609375 C 10 -31.523438 10.019531 -31.484375 10.0625 -31.484375 L 11.28125 -29.0625 C 14.84375 -31.4375 17.5 -32.625 19.25 -32.625 C 22.976562 -32.625 25.503906 -31.265625 26.828125 -28.546875 C 30.734375 -31.265625 33.644531 -32.625 35.5625 -32.625 C 38.695312 -32.625 41 -31.644531 42.46875 -29.6875 C 43.9375 -27.738281 44.671875 -24.300781 44.671875 -19.375 L 44.671875 0 C 44.671875 0.25 44.648438 0.421875 44.609375 0.515625 C 44.390625 0.847656 43.566406 1.015625 42.140625 1.015625 C 40.722656 1.015625 39.257812 0.90625 37.75 0.6875 C 36.238281 0.476562 35.484375 0.25 35.484375 0 Z M 35.484375 0 "/></g></g></g><g fill="#ffffff" fill-opacity="1"><g transform="translate(151.782779, 65.811607)"><g><path d="M 14.46875 1.015625 C 9.914062 1.015625 6.757812 -0.210938 5 -2.671875 C 3.238281 -5.140625 2.359375 -9.5625 2.359375 -15.9375 C 2.359375 -20.519531 2.757812 -24.007812 3.5625 -26.40625 C 4.375 -28.8125 5.597656 -30.445312 7.234375 -31.3125 C 8.867188 -32.1875 11.28125 -32.625 14.46875 -32.625 C 17.65625 -32.625 20.066406 -32.175781 21.703125 -31.28125 C 23.335938 -30.394531 24.535156 -28.738281 25.296875 -26.3125 C 26.054688 -23.894531 26.4375 -20.457031 26.4375 -16 C 26.4375 -15.738281 26.4375 -15.476562 26.4375 -15.21875 C 26.4375 -14.96875 25.9375 -14.734375 24.9375 -14.515625 C 23.945312 -14.304688 22.75 -14.203125 21.34375 -14.203125 L 11.53125 -14.203125 C 11.613281 -9.234375 11.972656 -6.410156 12.609375 -5.734375 C 12.992188 -5.390625 13.613281 -5.21875 14.46875 -5.21875 C 20.03125 -5.21875 23.832031 -5.492188 25.875 -6.046875 C 25.957031 -6.085938 26.019531 -6.109375 26.0625 -6.109375 C 26.351562 -6.203125 26.59375 -6.035156 26.78125 -5.609375 C 26.976562 -5.179688 27.078125 -4.179688 27.078125 -2.609375 C 27.078125 -1.035156 26.738281 -0.164062 26.0625 0 C 24.320312 0.675781 20.457031 1.015625 14.46875 1.015625 Z M 11.53125 -24.28125 L 11.53125 -19.3125 L 17.96875 -19.3125 C 17.800781 -24.238281 17.3125 -26.703125 16.5 -26.703125 C 15.0625 -26.703125 13.875 -26.488281 12.9375 -26.0625 C 12 -25.632812 11.53125 -25.039062 11.53125 -24.28125 Z M 11.53125 -24.28125 "/></g></g></g><g fill="#ffffff" fill-opacity="1"><g transform="translate(180.704342, 65.811607)"><g><path d="M 19.25 -32.625 C 22.382812 -32.625 24.6875 -31.644531 26.15625 -29.6875 C 27.625 -27.738281 28.359375 -24.300781 28.359375 -19.375 L 28.359375 0 C 28.359375 0.25 28.335938 0.421875 28.296875 0.515625 C 28.078125 0.847656 27.253906 1.015625 25.828125 1.015625 C 24.410156 1.015625 22.957031 0.90625 21.46875 0.6875 C 19.988281 0.476562 19.25 0.25 19.25 0 L 19.171875 -19.375 C 19.171875 -24.125 18.832031 -26.5 18.15625 -26.5 C 16.625 -26.5 14.585938 -25.738281 12.046875 -24.21875 L 12.046875 0 C 12.046875 0.25 12.023438 0.421875 11.984375 0.515625 C 11.765625 0.847656 10.941406 1.015625 9.515625 1.015625 C 8.097656 1.015625 6.632812 0.90625 5.125 0.6875 C 3.625 0.476562 2.875 0.25 2.875 0 L 2.875 -31.609375 C 2.875 -32.285156 3.722656 -32.625 5.421875 -32.625 C 8.097656 -32.625 9.625 -32.285156 10 -31.609375 C 10 -31.523438 10.019531 -31.484375 10.0625 -31.484375 L 11.28125 -29.0625 C 14.84375 -31.4375 17.5 -32.625 19.25 -32.625 Z M 19.25 -32.625 "/></g></g></g><g fill="#ffffff" fill-opacity="1"><g transform="translate(211.791832, 65.811607)"><g><path d="M 5.921875 -26.5 L 0.828125 -26.5 C 0.316406 -26.5 0.03125 -26.613281 -0.03125 -26.84375 C -0.09375 -27.082031 -0.125 -27.351562 -0.125 -27.65625 C -0.125 -29.476562 0.191406 -30.453125 0.828125 -30.578125 L 5.921875 -31.609375 L 9.5 -38.8125 C 10.007812 -39.445312 10.984375 -39.765625 12.421875 -39.765625 C 12.804688 -39.765625 13.164062 -39 13.5 -37.46875 C 13.84375 -35.9375 14.207031 -33.984375 14.59375 -31.609375 L 20.703125 -31.609375 C 21.390625 -31.609375 21.734375 -30.753906 21.734375 -29.046875 C 21.734375 -27.347656 21.390625 -26.5 20.703125 -26.5 L 14.53125 -26.5 L 14.53125 -6.25 L 15.546875 0.953125 L 15.546875 1.015625 C 15.585938 1.273438 15.585938 1.445312 15.546875 1.53125 C 15.335938 1.863281 14.273438 2.03125 12.359375 2.03125 C 10.453125 2.03125 9.304688 1.648438 8.921875 0.890625 L 5.921875 -5.15625 Z M 5.921875 -26.5 "/></g></g></g><g fill="#ffffff" fill-opacity="1"><g transform="translate(233.260037, 65.811607)"><g><path d="M 17.453125 -1.96875 C 15.242188 0.0195312 13.28125 1.015625 11.5625 1.015625 C 9.84375 1.015625 8.453125 0.894531 7.390625 0.65625 C 6.328125 0.425781 5.367188 -0.078125 4.515625 -0.859375 C 3.671875 -1.640625 3.078125 -2.773438 2.734375 -4.265625 C 2.398438 -5.753906 2.234375 -7.726562 2.234375 -10.1875 C 2.234375 -13.632812 3.910156 -15.992188 7.265625 -17.265625 L 16.375 -19.625 C 16.332031 -22.382812 16.054688 -24.164062 15.546875 -24.96875 C 15.035156 -25.78125 13.929688 -26.1875 12.234375 -26.1875 C 10.535156 -26.1875 9.070312 -25.910156 7.84375 -25.359375 L 5.609375 -24.46875 L 5.546875 -24.46875 C 5.160156 -24.257812 4.820312 -24.429688 4.53125 -24.984375 C 3.757812 -26.597656 3.375 -27.859375 3.375 -28.765625 C 3.375 -29.679688 3.445312 -30.191406 3.59375 -30.296875 C 3.75 -30.398438 3.828125 -30.472656 3.828125 -30.515625 C 5.953125 -31.921875 8.703125 -32.625 12.078125 -32.625 C 15.453125 -32.625 18.050781 -32.175781 19.875 -31.28125 C 21.707031 -30.394531 23.035156 -28.769531 23.859375 -26.40625 C 24.691406 -24.050781 25.109375 -20.5625 25.109375 -15.9375 L 24.984375 0 C 24.984375 0.25 24.9375 0.421875 24.84375 0.515625 C 24.675781 0.847656 23.867188 1.015625 22.421875 1.015625 C 19.796875 1.015625 18.484375 0.675781 18.484375 0 Z M 9.296875 -10.0625 C 9.296875 -7.007812 10.191406 -5.394531 11.984375 -5.21875 C 13.210938 -5.21875 14.101562 -5.429688 14.65625 -5.859375 C 15.84375 -6.671875 16.4375 -9.6875 16.4375 -14.90625 C 14.226562 -14.613281 12.484375 -14.007812 11.203125 -13.09375 C 9.929688 -12.175781 9.296875 -11.164062 9.296875 -10.0625 Z M 9.296875 -10.0625 "/></g></g></g></g></g></svg>